<svg xmlns="http://www.w3.org/2000/svg" width="512" height="512" viewBox="0 0 72 72">
  <!-- Full-bleed midnight background -->
  <rect width="100%" height="100%" fill="#1a1a2e"/>
  <!-- Inner content scaled to 80% with 10% padding (safe zone for Android adaptive-icon masking) -->
  <g transform="translate(7.2 7.2) scale(0.8)">
    <g transform="translate(0, 23)" fill="none" stroke="#e94560" stroke-width="1" stroke-linecap="round" stroke-linejoin="round">
      <text x="5" y="18.5" fill="#e94560" font-size="24" stroke-width="0.5" font-family="monospace">sp</text>
      <g transform="scale(2, 2) translate(13.5, -6)">
        <g transform="scale(1, 0.83) translate(0, 2.5)">
          <path d="M18.944 12.33a1 1 0 0 0 0-.66 7.5 7.5 0 0 0-13.888 0 1 1 0 0 0 0 .66 7.5 7.5 0 0 0 13.888 0"/>
        </g>
        <line x1="12" x2="14.5" y1="12" y2="11"/>
        <line x1="12" x2="12.2" y1="12" y2="10.5"/>
        <circle cx="12" cy="12" r="4"/>
      </g>
    </g>
  </g>
</svg>
